<svg xmlns="http://www.w3.org/2000/svg" viewBox="0 0 190.95 62"><defs><style>.cls-1{fill:#7bbee5;}.cls-2{fill:#fff;}</style></defs><title>Recurso 30</title><g id="Capa_2" data-name="Capa 2"><g id="Capa_1-2" data-name="Capa 1"><path class="cls-1" d="M91.69,29.06a21.52,21.52,0,0,1-.36,3.71H83.62v6.76h10A20.54,20.54,0,0,1,94,43.16a21.2,21.2,0,0,1-.36,3.76H76.54V12.68H93.41q.16,1,.24,2t.08,1.71a26.68,26.68,0,0,1-.32,3.76H83.62v5.24h7.72A22.15,22.15,0,0,1,91.69,29.06Z"/><path class="cls-1" d="M105.76,21.82a17,17,0,0,1,3.24.31,7.63,7.63,0,0,1,3,1.26,12.86,12.86,0,0,1,2.44-1.1,9.77,9.77,0,0,1,3.16-.48,15.27,15.27,0,0,1,3.22.36,6.75,6.75,0,0,1,3,1.5A8.26,8.26,0,0,1,126,27a15.5,15.5,0,0,1,.86,5.67V46.87a13.63,13.63,0,0,1-1.88.31q-.84.07-1.48.07T122,47.18a13.6,13.6,0,0,1-1.88-.31V33.49a6.85,6.85,0,0,0-.72-3.62,2.61,2.61,0,0,0-2.36-1.1,4.23,4.23,0,0,0-1.1.14,4.79,4.79,0,0,0-.74.24,18.17,18.17,0,0,1,.36,3.81v13.9a13.65,13.65,0,0,1-1.88.31q-.84.07-1.48.07t-1.52-.07a13.65,13.65,0,0,1-1.88-.31V33.49a7.19,7.19,0,0,0-.68-3.62,2.51,2.51,0,0,0-2.32-1.1,5,5,0,0,0-.94.1,1.77,1.77,0,0,0-.62.19V46.87a13.68,13.68,0,0,1-1.88.31q-.84.07-1.48.07t-1.52-.07a13.65,13.65,0,0,1-1.88-.31V23.49a31.39,31.39,0,0,1,3.36-1.12A18.79,18.79,0,0,1,105.76,21.82Z"/><path class="cls-2" d="M131.28,12.61l2.83-.41a36.13,36.13,0,0,1,4.8-.26,19.92,19.92,0,0,1,4.3.48,10,10,0,0,1,3.92,1.79A9.35,9.35,0,0,1,150,17.92a15.18,15.18,0,0,1,1.09,6.22,15.89,15.89,0,0,1-.86,5.65,9.51,9.51,0,0,1-2.29,3.59,8.37,8.37,0,0,1-3.25,1.91,12.46,12.46,0,0,1-3.76.57q-.76,0-1.55-.07a6.38,6.38,0,0,1-1.11-.17V46.77a17.49,17.49,0,0,1-1.89.33,13.91,13.91,0,0,1-1.57.1,17.87,17.87,0,0,1-3.49-.43Zm7,16.17a2.23,2.23,0,0,0,.68.14c.32,0,.66,0,1,0a3.63,3.63,0,0,0,2.81-1.2,5.27,5.27,0,0,0,1.09-3.64,7.43,7.43,0,0,0-.34-2.42,4.08,4.08,0,0,0-.94-1.58,3.31,3.31,0,0,0-1.41-.84,5.86,5.86,0,0,0-1.69-.24h-.56a4.51,4.51,0,0,0-.64,0Z"/><path class="cls-2" d="M152.58,38.83a8,8,0,0,1,.84-3.88,7,7,0,0,1,2.17-2.44,8.36,8.36,0,0,1,2.93-1.27,14.34,14.34,0,0,1,3.13-.36h2.45a2.91,2.91,0,0,0-.4-1.43,2.53,2.53,0,0,0-.92-.89,4,4,0,0,0-1.25-.43,8.18,8.18,0,0,0-1.41-.12,11.4,11.4,0,0,0-2.25.26,14.24,14.24,0,0,0-2.65.84q-.36-.81-.62-1.48a8.26,8.26,0,0,1-.4-1.36,11.87,11.87,0,0,1-.2-1.43q-.06-.74-.06-1.7A22.42,22.42,0,0,1,157.78,22a17.66,17.66,0,0,1,3.44-.38,11.26,11.26,0,0,1,3.78.6A7.26,7.26,0,0,1,167.87,24a8.34,8.34,0,0,1,1.83,3.18,14.71,14.71,0,0,1,.64,4.62v14q-1.53.53-3.7,1.05a19.37,19.37,0,0,1-4.58.53,15.26,15.26,0,0,1-3.84-.45,7.82,7.82,0,0,1-3-1.46,6.71,6.71,0,0,1-1.95-2.66A10.32,10.32,0,0,1,152.58,38.83Zm9.48,2.68a8.08,8.08,0,0,0,1-.09,7.52,7.52,0,0,0,1-.19V36h-2.29a3.85,3.85,0,0,0-2.37.72,2.36,2.36,0,0,0-1,2,2.72,2.72,0,0,0,.36,1.51,2.44,2.44,0,0,0,.9.84,3.67,3.67,0,0,0,1.16.38A7.54,7.54,0,0,0,162.06,41.51Z"/><path class="cls-2" d="M182.51,40.36h7.68a24.23,24.23,0,0,1,.28,3.35c0,.48,0,1-.06,1.46s-.11,1.08-.22,1.75H173.31l-.64-1.44,8.4-16.75h-6.87a17,17,0,0,1-.26-1.84q-.06-.79-.06-1.51t.06-1.46a15.49,15.49,0,0,1,.26-1.75h16.35l.4,1.53Z"/><path class="cls-1" d="M15.78,6.59,14.63,4.68A31,31,0,0,0,.07,29H2.37A28.45,28.45,0,0,1,15.78,6.59Z"/><path class="cls-1" d="M30.78,2.31A28.32,28.32,0,0,1,46,6.7l1.41-2a31,31,0,0,0-31-1l1.16,1.92A28.33,28.33,0,0,1,30.78,2.31Z"/><path class="cls-1" d="M59.17,28.82h2.75A31,31,0,0,0,49,5.77l-1.42,2A28.42,28.42,0,0,1,59.17,28.82Z"/><path class="cls-1" d="M62,30.78H59.24A28.43,28.43,0,0,1,46.88,54.25l1.48,2.44A31,31,0,0,0,62,31C62,30.93,62,30.85,62,30.78Z"/><path class="cls-1" d="M30.78,59.24A28.33,28.33,0,0,1,15,54.49l-1.48,2.13a31,31,0,0,0,33.14,1.11l-1.47-2.43A28.33,28.33,0,0,1,30.78,59.24Z"/><path class="cls-1" d="M2.31,30.93H0S0,31,0,31A30.94,30.94,0,0,0,12,55.46l1.47-2.11A28.41,28.41,0,0,1,2.31,30.93Z"/><path class="cls-1" d="M25.75,26.52a7.05,7.05,0,0,1,9-.79L43.46,17c-.44-.38-.75-.62-.75-.62a1.55,1.55,0,0,0-2,.14L38.11,19.2c-.51.51-2.32.23-2.88,0a1.8,1.8,0,0,1-1-1.65V13.87a1.46,1.46,0,0,0-1.3-1.43H28.55a1.47,1.47,0,0,0-1.3,1.43v3.72c0,.72-1.46,1.8-2,2.06a1.81,1.81,0,0,1-1.9-.45l-2.63-2.63a1.55,1.55,0,0,0-2-.14,18,18,0,0,0-1.65,1.45,18.14,18.14,0,0,0-1.45,1.65,1.55,1.55,0,0,0,.13,2h0l2.63,2.63c.51.51.23,2.32,0,2.88a1.81,1.81,0,0,1-1.65,1H13.09a1.47,1.47,0,0,0-1.43,1.31V33.7A1.47,1.47,0,0,0,13.09,35h3.72c.72,0,1.8,1.46,2.06,2a1.82,1.82,0,0,1-.45,1.9l-2.63,2.63a1.55,1.55,0,0,0-.13,2s.24.31.62.75L25,35.55A7.05,7.05,0,0,1,25.75,26.52Z"/><path class="cls-1" d="M45.51,19a1.5,1.5,0,0,1,0,2.13L20.39,46.28a1.51,1.51,0,0,1-2.13,0h0a1.51,1.51,0,0,1,0-2.13L43.38,19a1.51,1.51,0,0,1,2.13,0Z"/><path class="cls-1" d="M46.65,23.74a1.51,1.51,0,0,1,0,2.13L25.1,47.42a1.51,1.51,0,0,1-2.13,0h0a1.51,1.51,0,0,1,0-2.13L44.52,23.74a1.51,1.51,0,0,1,2.13,0Z"/><path class="cls-1" d="M48.21,28a1.51,1.51,0,0,1,0,2.13L29.39,49a1.51,1.51,0,0,1-2.13,0h0a1.51,1.51,0,0,1,0-2.13L46.08,28a1.51,1.51,0,0,1,2.13,0Z"/><path class="cls-1" d="M47.34,34.74a1.5,1.5,0,0,1,0,2.13L36.1,48.12a1.51,1.51,0,0,1-2.13,0h0A1.51,1.51,0,0,1,34,46L45.21,34.74a1.51,1.51,0,0,1,2.13,0Z"/></g></g></svg>