<svg xmlns="http://www.w3.org/2000/svg" viewBox="0 0 144.75 47"><defs><style>.cls-1{fill:#fff;}</style></defs><title>Recurso 31</title><g id="Capa_2" data-name="Capa 2"><g id="Capa_1-2" data-name="Capa 1"><path class="cls-1" d="M69.51,22a16.32,16.32,0,0,1-.27,2.82H63.39V30H71a15.57,15.57,0,0,1,.27,2.74A16.07,16.07,0,0,1,71,35.57H58v-26H70.81q.12.79.18,1.48t.06,1.3a20.22,20.22,0,0,1-.24,2.85H63.39v4h5.85A16.79,16.79,0,0,1,69.51,22Z"/><path class="cls-1" d="M80.18,16.54a12.89,12.89,0,0,1,2.45.24,5.79,5.79,0,0,1,2.24,1,9.75,9.75,0,0,1,1.85-.83,7.4,7.4,0,0,1,2.39-.36,11.58,11.58,0,0,1,2.44.27A5.12,5.12,0,0,1,93.83,18a6.26,6.26,0,0,1,1.67,2.49,11.75,11.75,0,0,1,.65,4.3V35.53a10.34,10.34,0,0,1-1.42.23q-.64.06-1.12.05t-1.15-.05A10.31,10.31,0,0,1,91,35.53V25.39a5.19,5.19,0,0,0-.55-2.74,2,2,0,0,0-1.79-.83,3.21,3.21,0,0,0-.83.11,3.63,3.63,0,0,0-.56.18A13.77,13.77,0,0,1,87.57,25V35.53a10.35,10.35,0,0,1-1.42.23q-.64.06-1.12.05t-1.15-.05a10.35,10.35,0,0,1-1.42-.23V25.39a5.45,5.45,0,0,0-.51-2.74,1.9,1.9,0,0,0-1.76-.83,3.79,3.79,0,0,0-.71.07A1.35,1.35,0,0,0,79,22v13.5a10.37,10.37,0,0,1-1.42.23q-.64.06-1.12.05t-1.15-.05a10.35,10.35,0,0,1-1.42-.23V17.81A23.8,23.8,0,0,1,76.42,17,14.24,14.24,0,0,1,80.18,16.54Z"/><path class="cls-1" d="M99.52,9.56l2.15-.31a27.39,27.39,0,0,1,3.64-.2,15.1,15.1,0,0,1,3.26.36,7.59,7.59,0,0,1,3,1.36,7.09,7.09,0,0,1,2.15,2.81,11.51,11.51,0,0,1,.82,4.72,12,12,0,0,1-.65,4.28,7.21,7.21,0,0,1-1.74,2.72,6.34,6.34,0,0,1-2.47,1.45,9.45,9.45,0,0,1-2.85.44q-.58,0-1.17-.05a4.83,4.83,0,0,1-.84-.13v8.45a13.26,13.26,0,0,1-1.43.25,10.55,10.55,0,0,1-1.19.07,13.55,13.55,0,0,1-2.65-.33Zm5.27,12.26a1.69,1.69,0,0,0,.52.11c.24,0,.5,0,.76,0a2.75,2.75,0,0,0,2.13-.91A4,4,0,0,0,109,18.3a5.63,5.63,0,0,0-.26-1.83,3.09,3.09,0,0,0-.72-1.2,2.51,2.51,0,0,0-1.07-.63,4.44,4.44,0,0,0-1.28-.18h-.43a3.42,3.42,0,0,0-.49,0Z"/><path class="cls-1" d="M115.66,29.44a6,6,0,0,1,.64-2.94,5.31,5.31,0,0,1,1.65-1.85,6.34,6.34,0,0,1,2.22-1,10.87,10.87,0,0,1,2.38-.27h1.86a2.21,2.21,0,0,0-.3-1.09,1.92,1.92,0,0,0-.7-.67,3,3,0,0,0-.94-.33,6.2,6.2,0,0,0-1.07-.09,8.64,8.64,0,0,0-1.71.2,10.79,10.79,0,0,0-2,.63q-.28-.62-.47-1.12a6.26,6.26,0,0,1-.3-1,9,9,0,0,1-.15-1.09q0-.56,0-1.29a17,17,0,0,1,2.91-.87,13.39,13.39,0,0,1,2.6-.29,8.53,8.53,0,0,1,2.86.45,5.51,5.51,0,0,1,2.18,1.4,6.32,6.32,0,0,1,1.39,2.41,11.15,11.15,0,0,1,.49,3.5V34.77q-1.16.4-2.8.8a14.68,14.68,0,0,1-3.47.4,11.57,11.57,0,0,1-2.91-.34,5.93,5.93,0,0,1-2.27-1.11,5.09,5.09,0,0,1-1.48-2A7.82,7.82,0,0,1,115.66,29.44Zm7.19,2a6.13,6.13,0,0,0,.79-.07,5.7,5.7,0,0,0,.76-.15v-4h-1.74a2.92,2.92,0,0,0-1.8.54,1.79,1.79,0,0,0-.73,1.52,2.06,2.06,0,0,0,.27,1.14,1.85,1.85,0,0,0,.69.64,2.79,2.79,0,0,0,.88.29A5.72,5.72,0,0,0,122.85,31.47Z"/><path class="cls-1" d="M138.36,30.6h5.82a18.37,18.37,0,0,1,.21,2.54c0,.36,0,.73,0,1.11s-.09.82-.17,1.32H131.38l-.49-1.09,6.37-12.7h-5.21a12.85,12.85,0,0,1-.2-1.4q0-.6,0-1.14t0-1.11a11.75,11.75,0,0,1,.2-1.32h12.4l.3,1.16Z"/><path class="cls-1" d="M12,5l-.87-1.44A23.49,23.49,0,0,0,.05,22H1.8A21.56,21.56,0,0,1,12,5Z"/><path class="cls-1" d="M23.33,1.75A21.47,21.47,0,0,1,34.84,5.08l1.07-1.54A23.5,23.5,0,0,0,12.37,2.8l.88,1.45A21.48,21.48,0,0,1,23.33,1.75Z"/><path class="cls-1" d="M44.85,21.85h2.09A23.47,23.47,0,0,0,37.15,4.38L36.07,5.92A21.55,21.55,0,0,1,44.85,21.85Z"/><path class="cls-1" d="M47,23.33H44.91a21.55,21.55,0,0,1-9.37,17.79L36.65,43A23.48,23.48,0,0,0,47,23.5C47,23.44,47,23.39,47,23.33Z"/><path class="cls-1" d="M23.33,44.91a21.47,21.47,0,0,1-11.93-3.6l-1.12,1.61a23.49,23.49,0,0,0,25.12.84l-1.11-1.84A21.47,21.47,0,0,1,23.33,44.91Z"/><path class="cls-1" d="M1.75,23.45H0s0,0,0,0A23.45,23.45,0,0,0,9.07,42l1.12-1.6A21.54,21.54,0,0,1,1.75,23.45Z"/><path class="cls-1" d="M19.52,20.11a5.35,5.35,0,0,1,6.84-.6l6.59-6.59c-.33-.29-.57-.47-.57-.47a1.18,1.18,0,0,0-1.49.1l-2,2c-.38.38-1.76.18-2.18,0a1.37,1.37,0,0,1-.77-1.25V10.51a1.11,1.11,0,0,0-1-1.08H21.64a1.11,1.11,0,0,0-1,1.08v2.82c0,.55-1.11,1.37-1.51,1.56a1.37,1.37,0,0,1-1.44-.34l-2-2a1.17,1.17,0,0,0-1.49-.1A13.61,13.61,0,0,0,13,13.56a13.75,13.75,0,0,0-1.1,1.25A1.17,1.17,0,0,0,12,16.3h0l2,2c.39.39.18,1.76,0,2.18a1.37,1.37,0,0,1-1.25.77H9.93a1.11,1.11,0,0,0-1.08,1v3.31a1.11,1.11,0,0,0,1.08,1h2.82c.55,0,1.37,1.11,1.56,1.51A1.38,1.38,0,0,1,14,29.48l-2,2a1.17,1.17,0,0,0-.1,1.49s.18.24.47.57l6.58-6.58A5.35,5.35,0,0,1,19.52,20.11Z"/><path class="cls-1" d="M34.5,14.43a1.14,1.14,0,0,1,0,1.61l-19,19a1.14,1.14,0,0,1-1.61,0h0a1.14,1.14,0,0,1,0-1.61l19-19a1.14,1.14,0,0,1,1.61,0Z"/><path class="cls-1" d="M35.36,18a1.14,1.14,0,0,1,0,1.61L19,35.95a1.14,1.14,0,0,1-1.61,0h0a1.14,1.14,0,0,1,0-1.61L33.75,18a1.14,1.14,0,0,1,1.61,0Z"/><path class="cls-1" d="M36.55,21.25a1.14,1.14,0,0,1,0,1.61L22.28,37.13a1.14,1.14,0,0,1-1.61,0h0a1.14,1.14,0,0,1,0-1.61L34.93,21.25a1.14,1.14,0,0,1,1.61,0Z"/><path class="cls-1" d="M35.89,26.34a1.14,1.14,0,0,1,0,1.61l-8.52,8.52a1.14,1.14,0,0,1-1.61,0h0a1.14,1.14,0,0,1,0-1.61l8.52-8.52a1.14,1.14,0,0,1,1.61,0Z"/></g></g></svg>